<?xml version="1.0" encoding="UTF-8"?>
<svg id="_图层_2" data-name="图层_2" xmlns="http://www.w3.org/2000/svg" viewBox="0 0 742 429.77">
  <defs>
    <style>
      .cls-1 {
        fill: #025f84;
      }

      .cls-2 {
        fill: #2d2d2d;
      }
    </style>
  </defs>
  <g id="_图层_1-2" data-name="图层_1">
    <g>
      <g>
        <polygon class="cls-1" points="742 .65 741.57 .65 687.81 .43 580.3 0 539.8 .05 539.8 2.35 580.3 2.39 687.81 1.96 741.57 1.74 742 1.74 742 .65"/>
        <polygon class="cls-1" points="525.37 .06 365.28 .24 0 .95 0 1.44 365.28 2.16 525.37 2.33 525.37 .06"/>
      </g>
      <g>
        <path class="cls-1" d="M434.37,65.18c-.24,0-.5-.01-.69-.02-4.89-.16-44.02-.34-48.9-.46-4.89-.14-43.93-.17-48.82-.24-9.77-.16-123.81-.07-133.58-.03-9.77.1-123.83.44-133.6.75-4.99.15-37.17.38-68.77.66v2.33c31.87.28,64.69.52,69.74.67,9.77.31,123.35.65,133.13.75,9.77.04,123.31.13,133.09-.04,4.89-.07,43.99-.11,48.88-.24,4.89-.12,44.01-.3,48.9-.46.18,0,.42-.01.64-.02v-3.65Z"/>
        <path class="cls-1" d="M742,65.38c-6.87-.12-12.43-.22-15.09-.29l-24.43-.22-24.42-.14c-.7,0-6.31-.03-7.01-.04-4.18-.02-37.64-.1-41.82,0-6.98.18-62.89.36-69.87.6-2.79.1-25.11.19-27.9.22-5.79.08-35.58.07-60.94-.03v3.03c25.37-.1,55.19-.11,60.98-.03,2.79.03,25.07.13,27.86.22,6.98.24,62.89.42,69.87.6,4.19.1,37.65.03,41.83,0,.7,0,6.3-.03,7-.04l24.36-.14,24.5-.22c2.67-.07,8.23-.16,15.09-.28v-3.26Z"/>
      </g>
      <g>
        <path class="cls-1" d="M742,22.21c-2.83-.04-4.77-.06-5.32-.07l-23.82-.14-23.81-.11c-.23,0-6.6-.03-6.83-.03-1.39,0-39.38-.14-40.77-.11-2.33.06-65.81-.06-68.14.02-.93.03-26.28.08-27.21.09-.72,0-5.7.02-13,.03v2.5c7.33,0,12.32.02,13.05.03.93.01,26.23.06,27.16.09,2.33.08,65.8-.04,68.13.02,1.4.03,39.38-.1,40.78-.11.23,0,6.59-.03,6.83-.03l23.73-.11,23.9-.14c.55-.01,2.49-.04,5.32-.07v-1.86Z"/>
        <path class="cls-1" d="M513.4,21.9c-26.82,0-60.63-.01-62.62-.09-1.63-.05-46.06-.08-47.69-.12-1.63-.05-45.96-.02-47.59-.05-3.26-.05-136.84.16-140.1.17-3.26.03-136.87.33-140.13.44-1.71.05-39.42.18-75.28.33v1.09c36.17.15,74.76.28,76.49.33,3.26.11,136.27.4,139.53.44,3.26.01,136.22.23,139.48.17,1.63-.02,46.03,0,47.66-.05,1.63-.04,46.05-.06,47.68-.12,1.99-.07,35.75-.09,62.56-.09v-2.47Z"/>
      </g>
      <g>
        <path class="cls-1" d="M742,43.78c-4.97-.08-8.73-.13-10.2-.17l-24.12-.18-24.12-.13c-.47,0-6.45-.03-6.92-.03-2.79-.02-38.51-.12-41.3-.05-4.66.12-64.35.15-69,.31-1.86.06-25.7.14-27.56.16-2.23.03-13.53.05-27.66.04v2.68c14.15,0,25.46,0,27.7.04,1.86.02,25.65.09,27.51.16,4.66.16,64.34.19,69,.31,2.79.07,38.52-.04,41.31-.05.47,0,6.45-.03,6.92-.03l24.04-.13,24.2-.18c1.48-.04,5.24-.09,10.2-.17v-2.58Z"/>
        <path class="cls-1" d="M487.06,43.71c-21.31-.03-41.73-.11-44.83-.22-3.26-.11-45.04-.21-48.3-.29-3.26-.09-44.95-.09-48.21-.14-6.52-.11-130.32.05-136.84.07-6.52.06-130.35.38-136.86.59-3.37.1-38.29.29-72.03.5v1.71c34.04.22,69.7.41,73.12.51,6.52.21,129.81.53,136.33.59,6.52.02,129.77.18,136.28.07,3.26-.05,45.01-.05,48.27-.14,3.26-.08,45.03-.18,48.29-.29,3.09-.12,23.48-.19,44.77-.22v-2.72Z"/>
      </g>
      <g>
        <path class="cls-1" d="M369.71,86.12c-12.51-.12-38.16-.17-43.53-.25-13.03-.22-117.29-.19-130.32-.14-13.03.13-117.31.49-130.34.91-6.53.19-36.08.48-65.52.82v2.98c29.69.35,59.75.63,66.37.83,13.03.42,116.89.78,129.92.91,13.03.05,116.86.07,129.89-.14,5.36-.08,30.99-.14,43.53-.25v-5.65Z"/>
        <path class="cls-1" d="M742,86.99c-8.59-.18-15.93-.32-19.98-.42l-24.73-.26-24.73-.16c-.94-.01-6.16-.04-7.1-.04-5.58-.03-36.77-.07-42.35.06-9.31.23-61.43.57-70.74.89-3.72.13-24.53.25-28.25.29-13.03.18-85.95-.03-98.98-.52-2.67-.09-10.35-.19-18.95-.28v4.77c8.61-.09,16.32-.19,18.99-.28,13.03-.49,85.94-.69,98.98-.52,3.72.04,24.5.16,28.22.29,9.31.32,61.43.65,70.74.89,5.58.13,36.78.09,42.36.06.93,0,6.16-.03,7.09-.04l24.67-.15,24.8-.26c4.06-.1,11.4-.24,19.98-.41v-3.91Z"/>
      </g>
      <g>
        <path class="cls-1" d="M311.83,107.22c-24.65-.22-107.34-.25-122.48-.19-16.29.16-110.79.54-127.08,1.06-8.01.24-35,.57-62.26.96v3.64c27.49.4,54.89.74,62.99.98,16.29.53,110.43.9,126.72,1.06,15.14.06,97.5.03,122.11-.19v-7.33Z"/>
        <path class="cls-1" d="M742,108.62c-10.17-.24-19.26-.42-24.87-.56l-25.04-.3-25.04-.17c-1.17-.01-6.02-.04-7.19-.04-6.97-.04-35.9-.05-42.88.12-11.64.29-59.97.77-71.61,1.18-4.65.16-23.95.3-28.6.35-16.29.22-83.91-.06-100.2-.67-7.2-.24-34.46-.53-46.32-.73v6.2c11.83-.2,39.14-.49,46.35-.73,16.29-.61,83.9-.89,100.19-.67,4.65.05,23.92.19,28.57.35,11.64.4,59.97.88,71.61,1.18,6.98.17,35.91.15,42.89.12,1.17,0,6.01-.03,7.18-.04l24.99-.17,25.09-.3c5.63-.14,14.71-.33,24.87-.56v-4.53Z"/>
      </g>
      <g>
        <path class="cls-1" d="M742,130.26c-11.64-.31-22.42-.54-29.75-.73l-25.35-.34-25.34-.19c-1.4-.02-5.87-.04-7.28-.05-8.37-.05-35.03-.03-43.4.17-13.97.35-58.51.98-72.48,1.46-5.58.19-23.37.35-28.95.42-19.55.27-81.87-.09-101.42-.83-9.48-.32-39.06-.71-49.74-.95v7.17c10.65-.24,40.28-.63,49.77-.95,19.55-.74,81.87-1.09,101.41-.83,5.58.06,23.34.23,28.92.42,13.97.48,58.51,1.11,72.48,1.46,8.37.2,35.04.22,43.42.17,1.4,0,5.87-.03,7.27-.05l25.3-.18,25.39-.34c7.36-.18,18.13-.42,29.75-.72v-5.12Z"/>
        <path class="cls-1" d="M271.52,128.43c-32.51-.12-75.48-.15-88.69-.1-19.55.19-104.27.59-123.82,1.22-9.4.28-33.93.65-59.01,1.1v4.33c25.27.46,50.12.83,59.62,1.11,19.55.63,103.97,1.03,123.52,1.22,13.2.05,55.98.02,88.38-.1v-8.77Z"/>
      </g>
      <g>
        <path class="cls-1" d="M321.81,150.34c-9.74-.09-19.38-.17-24.95-.26-5.09-.08-12.78-.16-21.9-.22v9.78c9.12-.06,16.81-.14,21.9-.22,5.57-.08,15.21-.16,24.95-.26v-8.83Z"/>
        <path class="cls-1" d="M232.98,149.67c-23.2-.07-45.83-.08-56.67-.04-22.81.22-97.75.64-120.56,1.38-10.69.32-32.87.72-55.76,1.22v5.04c23.04.5,45.45.91,56.24,1.23,22.81.73,97.51,1.15,120.32,1.38,10.82.04,33.32.03,56.42-.04v-10.16Z"/>
        <path class="cls-1" d="M742,151.92c-13.01-.38-25.43-.67-34.64-.9l-25.65-.38-25.65-.2c-1.64-.02-5.73-.04-7.37-.05-9.76-.05-34.16,0-43.93.23-16.3.41-57.05,1.19-73.35,1.75-6.51.22-22.79.41-29.3.48-22.81.31-79.83-.12-102.64-.98-5.92-.2-16.46-.43-26.82-.64v7.05c10.37-.21,20.92-.44,26.85-.64,22.81-.86,79.83-1.29,102.63-.98,6.51.07,22.76.26,29.27.48,16.3.56,57.05,1.34,73.35,1.75,9.77.23,34.17.28,43.94.23,1.63,0,5.72-.03,7.35-.05l25.62-.2,25.69-.38c9.23-.23,21.64-.52,34.64-.9v-5.68Z"/>
      </g>
      <g>
        <path class="cls-1" d="M742,173.59c-14.33-.47-28.29-.81-39.53-1.09l-25.96-.42-25.96-.21c-1.87-.02-5.58-.04-7.46-.05-11.16-.06-33.29.01-44.45.28-18.62.47-55.59,1.4-74.22,2.04-7.44.26-22.21.46-29.65.55-14.93.2-38.28.12-60.41-.17v4.36c22.13-.29,45.49-.37,60.43-.17,7.44.08,22.19.29,29.63.55,18.63.64,55.59,1.57,74.22,2.04,11.16.27,33.31.34,44.47.28,1.87-.01,5.57-.03,7.44-.05l25.93-.21,25.99-.42c11.25-.28,25.21-.63,39.53-1.09v-6.21Z"/>
        <path class="cls-1" d="M198.69,170.92c-11.51-.02-21.7-.02-28.89,0-26.06.25-91.23.69-117.3,1.53-11.85.35-31.82.79-52.5,1.33v5.79c20.8.54,40.92.98,52.87,1.34,26.06.84,91.05,1.28,117.12,1.53,7.16.03,17.28.03,28.71,0v-11.54Z"/>
        <path class="cls-1" d="M314.63,171.81c-10.24-.12-20.67-.22-27.54-.32-7.99-.13-19.67-.24-32.76-.34v11.07c13.08-.09,24.76-.2,32.76-.34,6.87-.1,17.3-.2,27.54-.32v-9.76Z"/>
      </g>
      <g>
        <path class="cls-1" d="M176.8,192.21c-4.91,0-9.47,0-13.52.02-29.32.29-84.71.75-114.04,1.69-12.86.38-30.75.85-49.25,1.41v6.57c18.58.57,36.56,1.04,49.49,1.42,29.32.95,84.59,1.4,113.92,1.69,4.02.01,8.53.02,13.39.02v-12.83Z"/>
        <path class="cls-1" d="M333.79,193.83c-1.37-.03-2.7-.07-3.95-.1-14.66-.41-37.86-.61-52.52-.83-4.43-.07-9.46-.14-14.89-.21v11.87c5.43-.06,10.46-.13,14.89-.21,14.66-.22,37.88-.42,52.54-.83,1.25-.03,2.58-.06,3.94-.1v-9.61Z"/>
        <path class="cls-1" d="M742,195.27c-15.6-.56-31.03-.96-44.41-1.3l-26.27-.46-26.26-.23c-2.11-.02-5.44-.05-7.55-.06-12.55-.07-32.43.04-44.98.34-20.95.53-54.13,1.61-75.08,2.33-8.37.29-21.62.52-29.99.61-.13,0-.27,0-.39,0v4.23c.13,0,.27,0,.4,0,8.37.09,21.61.32,29.98.61,20.95.72,54.14,1.8,75.09,2.33,12.56.3,32.44.41,45,.34,2.1-.01,5.43-.03,7.53-.06l26.25-.23,26.28-.46c13.4-.34,28.82-.74,44.41-1.3v-6.71Z"/>
      </g>
      <g>
        <path class="cls-1" d="M369.71,216.75c-15.55-.53-34.08-1.15-49.03-1.52-16.29-.45-36.85-.68-53.14-.93-8.37-.14-17.6-.26-27.25-.37v13.27c9.64-.11,18.88-.23,27.25-.37,16.29-.25,36.86-.47,53.15-.93,14.96-.37,33.48-1,49.03-1.52v-7.62Z"/>
        <path class="cls-1" d="M143.95,213.67c-30.99.32-69.46.8-97.95,1.72-13.67.41-29.65.89-45.99,1.48v7.4c16.38.59,32.4,1.08,46.11,1.48,28.47.92,66.86,1.4,97.83,1.72v-13.8Z"/>
        <path class="cls-1" d="M742,216.98c-16.84-.66-33.64-1.13-49.3-1.52l-26.57-.5-26.57-.24c-2.34-.03-5.29-.05-7.64-.06-13.95-.08-31.56.06-45.51.39-8.61.22-18.05.52-27.71.86v9.32c9.66.34,19.1.64,27.71.86,13.95.33,31.57.47,45.52.39,2.33-.01,5.28-.04,7.62-.06l26.56-.24,26.58-.5c15.67-.39,32.47-.86,49.3-1.52v-7.18Z"/>
      </g>
      <g>
        <path class="cls-1" d="M398.9,239.61c-11.21-.28-22.41-.62-33.62-1.04-17.92-.6-35.84-1.39-53.76-1.83-17.92-.5-35.84-.75-53.76-1.02-13.66-.23-27.32-.41-40.97-.56v14.71c13.66-.15,27.32-.34,40.97-.56,17.92-.27,35.84-.53,53.76-1.02,17.92-.44,35.84-1.23,53.76-1.83,11.21-.42,22.41-.76,33.62-1.04v-5.79Z"/>
        <path class="cls-1" d="M87.64,235.72c-14.97.29-29.94.64-44.9,1.12-14.25.42-28.49.95-42.74,1.54v8.23c14.25.59,28.49,1.12,42.74,1.54,14.97.48,29.94.83,44.9,1.12v-13.56Z"/>
        <path class="cls-1" d="M742,238.69c-18.06-.77-36.12-1.3-54.19-1.75l-26.88-.53-6.26-.06v12.33l6.26-.06,26.88-.53c18.06-.45,36.12-.99,54.19-1.75v-7.63Z"/>
      </g>
    </g>
    <g>
      <path class="cls-2" d="M48.53,356.03s4.35,3.41,6.98,5.88c-.18.69-.84,1.01-1.73,1.01H.48L0,361.08h22.78v-52.82l8.29.95c-.12.88-.6,1.52-2.15,1.77v20.79h11.45l3.82-4.99s4.17,3.35,6.74,5.81c-.18.69-.77,1.01-1.61,1.01h-20.39v27.48h15.86l3.76-5.05Z"/>
      <path class="cls-2" d="M86.08,322.6c13.95,1.26,9.84,11.94,4.65,8.47-.72-2.91-3.1-6.13-5.13-7.96l.48-.51ZM102.72,318.5c-2.21,7.83-6.2,22.49-6.92,25.78-.42,2.08-.84,4.23-.78,5.88.06,3.1,2.15,5.75,1.91,11.12-.06,2.97-1.61,4.86-4.11,4.86-1.25,0-2.33-1.01-2.62-3.16,1.01-6.51.72-12.07-.66-13.02-.83-.63-1.73-.88-2.98-1.01v-1.26h2.62c.77,0,1.01-.06,1.61-1.33q1.13-2.34,10.91-28.18l1.01.32ZM90.14,308.01c14.79,1.77,10.61,12.89,5.13,9.16-.77-3.16-3.34-6.57-5.6-8.66l.48-.51ZM134.5,340.61c-.24,5.31-.6,9.54-1.01,12.83h.36l2.56-4.11s2.92,2.91,4.59,4.93c-.18.7-.72,1.01-1.55,1.01h-6.2c-.71,4.3-1.61,6.82-2.86,8.21-1.79,2.02-4.29,2.65-7.04,2.72,0-1.64-.18-2.84-.89-3.6-.83-.88-2.56-1.52-4.59-1.96v-1.01c2.03.19,5.13.44,6.32.44,1.01,0,1.49-.19,2.09-.82.6-.57,1.07-1.9,1.55-3.98h-18.66l-2.27,2.65-5.37-3.66c.54-.44,1.37-1.01,2.15-1.39.66-3.16,1.31-7.64,1.97-12.26h-6.44l-.48-1.83h7.16c.72-4.99,1.25-10.05,1.67-14.22-2.03,2.65-4.29,5.05-6.74,6.95l-.71-.57c4.23-5.62,7.93-15.42,9.48-23.44l7.99,2.53c-.24.7-.72,1.01-2.21.76-.66,1.71-1.49,3.35-2.39,5.12h19.14l3.22-4.55s3.7,3.1,5.84,5.37c-.12.7-.78,1.01-1.61,1.01h-27.55c-.78,1.33-1.61,2.72-2.45,3.92l4.71,2.46h14.91l2.98-3.28,5.37,4.86c-.48.57-1.25.95-2.56,1.14-.12,4.49-.24,8.4-.36,11.94h.42l2.68-4.42s2.98,3.1,4.65,5.24c-.12.69-.72,1.01-1.55,1.01h-6.32ZM128.12,353.43c.48-3.03.89-7.33,1.13-12.83h-18.36c-.66,4.61-1.37,9.22-2.03,12.83h19.26ZM112.8,325.95c-.42,3.54-1.01,8.09-1.67,12.83h18.24c.18-3.79.3-7.96.42-12.83h-16.99ZM115.48,341.87c12.16,3.6,8.11,12.38,3.93,8.97-.48-2.84-2.68-6.44-4.47-8.53l.54-.44ZM116.43,327.97c11.81,3.22,8.23,11.56,4.05,8.47-.6-2.59-2.86-6-4.65-8.02l.6-.44Z"/>
      <path class="cls-2" d="M202.34,309.59c-.12.88-.6,1.52-2.15,1.77,1.31,23.82,6.8,39.23,27.31,48.14l-.12.7c-2.92.57-4.89,2.46-5.66,5.75-15.5-8.85-20.33-23.63-21.94-43.34-1.07,15.8-5.37,32.03-27.31,43.53l-.72-.95c22.66-16.36,22.24-36.77,22.3-56.48l8.29.88Z"/>
      <path class="cls-2" d="M306.19,354.13s4.35,3.41,6.92,5.88c-.18.7-.78,1.01-1.67,1.01h-53.31l-.54-1.83h24.45v-40.12h-19.97l-.48-1.83h37.09l3.76-5.12s4.23,3.48,6.92,5.94c-.18.7-.84,1.01-1.73,1.01h-19.44v40.12h14.19l3.82-5.05Z"/>
      <path class="cls-2" d="M359.23,325.57c-.24,1.07-.54,2.08-.83,3.1,14.19,1.83,12.1,12.07,6.92,9.67-1.31-2.78-4.59-6.06-7.51-8.28-2.27,4.93-6.62,8.85-15.44,11.81l-.66-.95c8.29-4.17,11.21-9.16,12.28-15.35h-11.69l-.48-1.83h12.4c.24-2.27.3-4.68.36-7.27h-3.22c-1.85,2.78-4.05,4.99-6.5,6.63l-.77-.63c2.27-3.66,4.17-9.22,5.13-14.97l7.27,2.27c-.24.76-.95,1.33-2.27,1.33-.54,1.26-1.13,2.4-1.73,3.54h9.54l3.1-4.17s3.52,2.84,5.54,4.99c-.12.69-.77,1.01-1.55,1.01h-8.94c-.12,2.59-.24,4.99-.6,7.27h3.46l3.16-4.17s3.4,2.84,5.55,4.99c-.18.7-.72,1.01-1.55,1.01h-10.97ZM383.02,338.02l5.78,4.68c-.36.51-1.19,1.07-2.33,1.26v20.34c-.06.44-2.86,1.58-4.71,1.58h-.95v-3.73h-22.84v2.08c0,.57-2.39,1.9-4.77,1.9h-.84v-27.61l6.02,2.65h21.88l2.74-3.16ZM357.98,343.01v7.52h22.84v-7.52h-22.84ZM380.81,360.32v-7.96h-22.84v7.96h22.84ZM396.2,315.84c-.42.51-1.31,1.01-2.44,1.26v18.32c-.06.44-2.8,1.58-4.59,1.58h-.89v-4.17h-10.2v3.41c0,.51-2.27,1.9-4.53,1.9h-.83v-26.41l5.66,2.53h9.3l2.74-3.1,5.78,4.68ZM388.27,331.01v-14.91h-10.2v14.91h10.2Z"/>
      <path class="cls-2" d="M447.74,314.33c15.03,4.99,10.31,16.74,5.25,12.45-.12-1.26-.48-2.59-1.01-3.92-4.41,1.2-11.27,2.91-19.02,4.49-.42.51-.83.88-1.25,1.07l-2.56-6.63s1.13-.25,1.67-.57c3.58-2.72,8.35-10.24,9.84-14.22l7.51,3.1c-.24.63-.95,1.14-2.15,1.07-2.92,3.41-7.87,7.77-12.22,10.8,4.47-.06,10.91-.25,17.65-.51-1.13-2.53-2.8-4.87-4.35-6.63l.66-.51ZM450.78,328.1l5.96,4.74c-.36.51-1.25,1.07-2.5,1.26v24.51c0,4.23-.77,6.7-6.86,7.33-.12-1.9-.36-3.29-.95-4.23-.72-.88-1.73-1.64-3.82-1.96v-.95s3.93.32,5.07.32c.89,0,1.07-.32,1.07-1.14v-8.02h-10.26v14.15c0,.63-2.15,1.96-4.41,1.96h-.84v-37.28l5.55,2.46h9.36l2.62-3.16ZM438.49,333.09v6.38h10.26v-6.38h-10.26ZM448.75,348.13v-6.82h-10.26v6.82h10.26ZM466.58,335.11c-5.25,0-6.32-1.14-6.32-5.24v-21.61l7.39.76c-.06.76-.66,1.39-1.85,1.58v9.41c4.17-2.46,8.94-6.19,11.27-8.66l6.08,4.8c-.54.63-1.61.7-3.22.25-3.4,1.64-8.94,3.73-14.13,5.05v7.08c0,.95.24,1.2,2.15,1.2h4.83c2.03,0,3.7,0,4.41-.06.6,0,1.01-.19,1.31-.7.54-.82,1.31-3.47,2.15-6.44h.72l.18,6.7c1.61.63,2.03,1.26,2.03,2.4,0,2.46-2.32,3.47-11.27,3.47h-5.72ZM482.26,358.93c1.61.63,2.09,1.33,2.09,2.46,0,2.46-2.39,3.54-11.57,3.54h-5.84c-5.37,0-6.5-1.26-6.5-5.43v-22.43l7.45.76c-.06.76-.66,1.39-1.85,1.58v9.6c4.29-2.72,8.94-6.63,11.27-9.35l6.44,4.74c-.54.63-1.55.82-3.28.38-3.4,1.9-9,4.3-14.43,5.81v7.58c0,1.01.3,1.33,2.15,1.33h5.07c2.09,0,3.88,0,4.53-.06.66-.06,1.01-.25,1.37-.76.54-.95,1.37-3.85,2.21-7.08h.72l.18,7.33Z"/>
      <path class="cls-2" d="M563.15,339.6s4.11,3.54,6.56,5.94c-.12.7-.78,1.01-1.67,1.01h-21.88c-.42,1.07-.77,2.08-1.31,3.1,27.37,4.99,23.55,19.08,17.29,15.67-2.5-3.85-9.12-10.05-17.95-14.53-4.17,6.76-12.34,11.81-28.68,15.48l-.48-1.01c15.38-4.87,22.12-10.8,25.04-18.7h-22.78l-.48-1.83h23.85c1.91-6.38,1.73-14.03,1.73-23.19l8.29.82c-.12.88-.66,1.52-2.09,1.71-.18,7.96-.18,14.85-1.91,20.66h12.88l3.58-5.12ZM524.28,319.7c.24,4.36-1.31,7.39-3.34,8.66-1.85,1.26-4.71.82-5.49-1.52-.6-2.15.6-3.79,2.44-4.74,2.15-1.2,4.59-4.3,4.41-7.83h.83c.42,1.26.72,2.46.89,3.6h37.56l3.22-3.54,5.78,5.88c-.48.51-1.13.63-2.27.7-1.85,2.21-5.13,5.24-7.63,7.01l-.6-.44c.6-2.15,1.37-5.24,1.85-7.77h-37.68ZM523.68,332.21c16.22,1.77,12.4,13.58,6.56,10.05-1.07-3.28-4.35-7.27-7.04-9.6l.48-.44ZM528.27,322.54c15.14,1.64,11.39,12.45,6.02,9.22-1.07-2.97-4.11-6.7-6.5-8.72l.48-.51ZM538.23,307.44c14.97,1.39,9.54,13.65,3.76,9.1-.24-3.16-2.09-6.63-4.29-8.66l.54-.44Z"/>
      <path class="cls-2" d="M615.73,346.74c-2.27,1.83-5.72,4.55-10.61,7.96-.24.82-.72,1.39-1.31,1.64l-2.98-6.89c2.62-.44,8.71-1.9,14.73-3.47l.18.76ZM625.15,338.27c11.33,11.25,6.74,22.56,2.39,17.63.18-5.5-1.61-12.51-3.22-17.37-.42.44-1.13.76-2.27.95-.54,15.48-1.85,22.18-4.35,24.58-1.55,1.52-3.64,2.21-5.84,2.21,0-1.52-.18-2.84-.83-3.47-.72-.76-2.15-1.26-3.82-1.64v-1.01c1.67.13,4.29.32,5.37.32.89,0,1.37-.13,1.85-.57,1.49-1.45,2.5-7.96,3.04-21.1h-8.41l-2.03,2.46-4.83-3.54c.6-.44,1.37-.95,2.21-1.33.66-4.93,1.37-13.14,1.49-17.18l6.5,1.52c-.24.76-.78,1.45-2.21,1.45-.3,3.85-.83,10.36-1.43,14.78h5.49c.89-7.27,1.55-16.43,1.85-22.56h-13.06l-.54-1.83h13.06l2.21-2.91,5.49,4.49c-.42.57-1.37,1.01-2.62,1.14-.18,4.49-.72,12.38-1.25,18.89l.12-.13,4.89,4.42-.06.06.83-.25ZM619.96,332.27c6.38-6.51,11.87-17.25,13.95-24.89l7.81,2.21c-.24.7-.89,1.14-2.5,1.26l-.3.57c3.22,7.64,10.67,13.71,17.53,16.87l-.12.7c-2.21.88-3.7,2.4-4.05,4.49-6.32-4.42-11.27-12-14.13-20.41-3.88,7.08-9.96,14.97-17.53,19.84l-.66-.63ZM650.79,357.29s3.58,2.97,5.78,5.12c-.18.7-.77,1.01-1.61,1.01h-33.93l-.48-1.83h19.85c1.97-6.89,4.29-17.31,5.72-25.9l7.75,2.65c-.3.76-.95,1.26-2.27,1.2-2.68,7.71-6.08,15.92-9.72,22.05h5.66l3.22-4.3ZM642.92,328.23s2.92,2.53,4.71,4.42c-.12.7-.72,1.01-1.55,1.01h-19.5l-.48-1.83h14.19l2.62-3.6ZM633.5,336.19c11.27,11.18,6.68,22.37,2.33,17.5.12-5.5-1.61-12.38-3.22-17.25l.89-.25Z"/>
      <path class="cls-2" d="M735.32,356.97s4,3.22,6.5,5.5c-.18.7-.77,1.01-1.67,1.01h-52.23l-.54-1.83h24.09v-9.41h-17.41l-.48-1.83h17.89v-8.97l7.99.69c-.06.95-.54,1.52-2.03,1.77v6.51h8.88l3.4-4.42s3.82,3.03,6.26,5.24c-.18.69-.78,1.01-1.61,1.01h-16.93v9.41h14.31l3.58-4.68ZM695.97,317.74c.24,4.23-1.25,7.14-3.16,8.47-1.67,1.2-4.17.95-4.89-1.01-.66-1.83.42-3.41,1.91-4.23,2.21-1.2,4.35-4.61,4.17-8.28l.89-.06c.42,1.14.66,2.27.83,3.28h19.32c-.54-.06-1.07-.32-1.61-.69-.42-2.72-2.39-5.75-4.41-7.39l.48-.44c11.33.13,10.43,7.83,6.68,8.53h17.23l3.1-3.35,5.49,5.62c-.48.51-1.07.7-2.27.76-1.49,1.96-3.94,4.68-5.96,6.19l-.66-.38c.3-1.9.66-4.74.83-7.01h-37.98ZM694.3,337.83s1.25-.19,1.85-.51c4.47-1.9,10.31-7.27,13.3-10.87h-13.65l-.48-1.83h29.22l3.22-4.04s3.64,2.78,5.9,4.86c-.12.7-.77,1.01-1.55,1.01h-19.26l4.65,2.59c-.3.57-1.07,1.01-2.33.76-3.52,2.65-9.48,6-14.97,8.28,6.62-.06,16.75-.32,27.43-.76-1.85-2.34-3.94-4.49-5.72-6.06l.6-.51c17.83,4.23,14.97,16.36,9.12,13.08-.66-1.64-1.73-3.41-2.98-5.18-7.21,1.26-17.71,2.91-30.05,4.42-.48.88-1.07,1.45-1.67,1.71l-2.62-6.95Z"/>
    </g>
    <g>
      <path class="cls-2" d="M.99,411.9c.73,1.91,1.59,3.44,2.58,4.57,1.72,1.98,3.85,2.97,6.4,2.97,1.38,0,2.57-.43,3.58-1.29,1.01-.86,1.51-2.06,1.51-3.6,0-1.39-.51-2.59-1.52-3.62-.66-.65-2.06-1.63-4.18-2.93l-3.7-2.27c-1.11-.69-2-1.39-2.66-2.1-1.23-1.34-1.84-2.83-1.84-4.45,0-2.15.73-3.94,2.18-5.36,1.45-1.43,3.38-2.14,5.78-2.14.99,0,2.18.24,3.56.72,1.39.48,2.18.72,2.38.72.54,0,.91-.12,1.11-.37s.36-.6.48-1.06h.89l.95,9.06h-1.04c-.71-2.73-1.84-4.63-3.4-5.71s-3.1-1.62-4.62-1.62c-1.18,0-2.22.34-3.1,1.03-.88.69-1.32,1.64-1.32,2.86,0,1.09.34,2.03,1.01,2.81.68.79,1.72,1.61,3.15,2.47l3.81,2.31c2.38,1.44,4.06,2.76,5.04,3.97.96,1.22,1.44,2.66,1.44,4.32,0,2.23-.86,4.09-2.57,5.59-1.71,1.5-3.9,2.24-6.57,2.24-1.34,0-2.74-.25-4.2-.75-1.46-.5-2.3-.75-2.51-.75-.51,0-.85.15-1.03.46s-.29.63-.35.98h-.95L0,411.9h.99Z"/>
      <path class="cls-2" d="M22.68,419.88c1.16-.15,1.91-.43,2.27-.84.36-.41.54-1.37.54-2.9v-19.95c0-.78-.1-1.35-.31-1.71-.21-.37-.7-.55-1.49-.55-.16,0-.31.01-.45.03-.15.02-.31.05-.5.07v-.75c.62-.18,1.39-.4,2.3-.66.91-.26,1.54-.44,1.89-.55l2.03-.62.04.15v12.76c.89-1,1.68-1.73,2.37-2.2,1.24-.83,2.58-1.25,4.02-1.25,2.29,0,3.84.94,4.68,2.83.45,1,.68,2.31.68,3.93v8.48c0,1.47.17,2.43.52,2.87.34.44,1.05.73,2.13.87v.58h-9.16v-.58c1.23-.17,2.02-.45,2.37-.85.35-.4.53-1.36.53-2.89v-8.42c0-1.34-.23-2.43-.69-3.26s-1.32-1.25-2.59-1.25c-1.1,0-2.17.39-3.2,1.16s-1.54,1.28-1.54,1.52v10.25c0,1.55.18,2.52.55,2.91.37.39,1.15.67,2.35.83v.58h-9.33v-.58Z"/>
      <path class="cls-2" d="M48.63,411.29c1.3-.83,3.89-1.96,7.77-3.39v-1.77c0-1.41-.14-2.4-.42-2.95-.48-.93-1.47-1.39-2.98-1.39-.72,0-1.4.18-2.05.54-.65.37-.97.89-.97,1.54,0,.17.03.45.11.84.07.4.11.65.11.76,0,.78-.26,1.32-.78,1.62-.3.18-.65.27-1.06.27-.63,0-1.12-.2-1.46-.61-.34-.41-.51-.86-.51-1.36,0-.97.61-1.98,1.83-3.04,1.22-1.06,3.01-1.59,5.36-1.59,2.74,0,4.59.87,5.57,2.62.52.96.78,2.35.78,4.18v8.33c0,.8.06,1.36.17,1.66.18.54.56.81,1.14.81.32,0,.59-.05.8-.15s.58-.33,1.1-.71v1.08c-.45.54-.94.98-1.46,1.33-.79.53-1.59.79-2.41.79-.96,0-1.65-.3-2.08-.91-.43-.61-.67-1.34-.71-2.18-1.07.91-1.99,1.59-2.75,2.04-1.28.75-2.5,1.12-3.66,1.12s-2.26-.42-3.15-1.26-1.33-1.9-1.33-3.19c0-2.01,1.02-3.69,3.07-5.03ZM56.39,408.95c-1.62.53-2.96,1.11-4.02,1.75-2.03,1.23-3.05,2.63-3.05,4.2,0,1.26.42,2.19,1.27,2.79.55.39,1.16.58,1.84.58.93,0,1.82-.26,2.68-.77.85-.51,1.28-1.16,1.28-1.95v-6.59Z"/>
      <path class="cls-2" d="M63.99,419.88c1-.13,1.7-.37,2.11-.74s.6-1.19.6-2.46v-10.56c0-.88-.09-1.5-.25-1.86-.27-.52-.82-.78-1.65-.78-.13,0-.26,0-.39.02-.13.01-.3.03-.5.06v-.73c.58-.17,1.95-.6,4.1-1.29l1.99-.64c.1,0,.16.03.18.1.02.07.03.17.03.29v3.05c1.3-1.19,2.31-2.01,3.04-2.45,1.1-.68,2.24-1.02,3.42-1.02.96,0,1.83.27,2.62.81,1.52,1.05,2.28,2.93,2.28,5.63v9.71c0,1,.2,1.72.61,2.16.41.44,1.09.67,2.04.69v.58h-9.04v-.58c1.03-.14,1.75-.42,2.16-.84.41-.42.61-1.34.61-2.75v-8.87c0-1.19-.22-2.18-.67-2.96s-1.28-1.17-2.48-1.17c-.83,0-1.67.28-2.52.83-.48.32-1.09.85-1.85,1.58v11.64c0,1,.22,1.67.68,2.01.45.34,1.16.52,2.14.55v.58h-9.25v-.58Z"/>
      <path class="cls-2" d="M88.88,411.25c-.71-1.07-1.07-2.27-1.07-3.6,0-1.62.66-3.16,1.97-4.61,1.31-1.45,3.17-2.18,5.57-2.18,1.03,0,2.17.24,3.41.72,1.24.48,2.43.72,3.58.72.3,0,.74-.01,1.34-.03.6-.02,1.03-.03,1.3-.03h.25v1.68h-3.66c.25.58.45,1.09.59,1.52.24.8.36,1.57.36,2.29,0,1.58-.67,3.03-2,4.35-1.33,1.32-3.13,1.98-5.39,1.98-.35,0-.99-.06-1.9-.19-.41,0-.95.34-1.63,1.02-.68.68-1.02,1.23-1.02,1.66s.49.77,1.48.98c.65.14,1.37.21,2.16.21,3.63,0,6.1.2,7.4.6,2.13.65,3.2,2.05,3.2,4.2s-1.25,3.93-3.74,5.24-5,1.95-7.54,1.95c-2.31,0-4.15-.46-5.5-1.38-1.35-.92-2.03-1.89-2.03-2.9,0-.5.18-.99.54-1.47.36-.48,1.06-1.19,2.12-2.13l1.39-1.23.25-.25c-.64-.25-1.13-.49-1.45-.73-.56-.43-.84-.92-.84-1.48,0-.51.24-1.08.73-1.69.49-.62,1.53-1.62,3.12-3-1.28-.42-2.28-1.16-2.99-2.22ZM91.13,426.72c1.33.44,2.86.67,4.58.67,2.34,0,4.25-.4,5.71-1.2,1.47-.8,2.2-1.78,2.2-2.94,0-.93-.59-1.54-1.78-1.85-.74-.18-2.13-.28-4.18-.31-.52-.01-1.08-.03-1.65-.05-.58-.02-1.11-.05-1.59-.07-.31-.01-.81-.07-1.51-.17s-1.21-.18-1.55-.25c-.17,0-.58.44-1.24,1.31-.67.89-1,1.7-1,2.45,0,1.16.67,1.97,2,2.41ZM97.84,412.44c.85-.66,1.27-1.82,1.27-3.47,0-1.32-.34-2.8-1.03-4.45-.68-1.65-1.82-2.47-3.42-2.47-1.38,0-2.33.64-2.86,1.93-.27.68-.4,1.52-.4,2.51,0,1.69.42,3.21,1.25,4.55.83,1.34,1.91,2.02,3.24,2.02.78,0,1.42-.21,1.95-.62Z"/>
      <path class="cls-2" d="M106.92,419.88c1.16-.15,1.91-.43,2.27-.84.36-.41.54-1.37.54-2.9v-19.95c0-.78-.1-1.35-.31-1.71-.21-.37-.7-.55-1.49-.55-.16,0-.31.01-.45.03-.15.02-.31.05-.5.07v-.75c.62-.18,1.39-.4,2.3-.66.91-.26,1.54-.44,1.89-.55l2.03-.62.04.15v12.76c.89-1,1.68-1.73,2.37-2.2,1.24-.83,2.58-1.25,4.02-1.25,2.29,0,3.84.94,4.68,2.83.45,1,.68,2.31.68,3.93v8.48c0,1.47.17,2.43.52,2.87.34.44,1.05.73,2.13.87v.58h-9.16v-.58c1.23-.17,2.02-.45,2.37-.85.35-.4.53-1.36.53-2.89v-8.42c0-1.34-.23-2.43-.69-3.26s-1.32-1.25-2.59-1.25c-1.1,0-2.17.39-3.2,1.16s-1.54,1.28-1.54,1.52v10.25c0,1.55.18,2.52.55,2.91.37.39,1.15.67,2.35.83v.58h-9.33v-.58Z"/>
      <path class="cls-2" d="M132.86,411.29c1.3-.83,3.89-1.96,7.77-3.39v-1.77c0-1.41-.14-2.4-.42-2.95-.48-.93-1.47-1.39-2.98-1.39-.72,0-1.4.18-2.05.54-.65.37-.97.89-.97,1.54,0,.17.03.45.11.84.07.4.11.65.11.76,0,.78-.26,1.32-.78,1.62-.3.18-.65.27-1.06.27-.63,0-1.12-.2-1.46-.61-.34-.41-.51-.86-.51-1.36,0-.97.61-1.98,1.83-3.04,1.22-1.06,3.01-1.59,5.36-1.59,2.74,0,4.59.87,5.57,2.62.52.96.78,2.35.78,4.18v8.33c0,.8.06,1.36.17,1.66.18.54.56.81,1.14.81.32,0,.59-.05.8-.15s.58-.33,1.1-.71v1.08c-.45.54-.94.98-1.46,1.33-.79.53-1.59.79-2.41.79-.96,0-1.65-.3-2.08-.91-.43-.61-.67-1.34-.71-2.18-1.07.91-1.99,1.59-2.75,2.04-1.28.75-2.5,1.12-3.66,1.12s-2.26-.42-3.15-1.26-1.33-1.9-1.33-3.19c0-2.01,1.02-3.69,3.07-5.03ZM140.63,408.95c-1.62.53-2.96,1.11-4.02,1.75-2.03,1.23-3.05,2.63-3.05,4.2,0,1.26.42,2.19,1.27,2.79.55.39,1.16.58,1.84.58.93,0,1.82-.26,2.68-.77.85-.51,1.28-1.16,1.28-1.95v-6.59Z"/>
      <path class="cls-2" d="M148.29,419.88c1.51-.14,2.46-.39,2.86-.76.4-.37.59-1.36.59-2.98v-9.91c0-.9-.06-1.52-.19-1.87-.21-.57-.66-.85-1.33-.85-.16,0-.31.01-.45.04s-.57.14-1.28.33v-.64l.91-.29c2.47-.79,4.19-1.39,5.16-1.79.4-.17.65-.25.76-.25.03.1.04.2.04.31v14.92c0,1.58.19,2.57.58,2.97.39.4,1.27.66,2.63.77v.58h-10.28v-.58ZM151.65,392.09c.42-.43.95-.64,1.57-.64s1.13.21,1.56.63c.43.42.65.93.65,1.54s-.22,1.1-.65,1.52c-.43.42-.95.63-1.56.63s-1.14-.21-1.57-.63c-.42-.42-.63-.93-.63-1.52s.21-1.1.63-1.53Z"/>
      <path class="cls-2" d="M168.59,420.46v-.79c1.11-.12,1.95-.53,2.51-1.24s1.51-2.62,2.87-5.75l9.03-20.89h.86l10.8,24.13c.72,1.6,1.29,2.59,1.72,2.97.43.38,1.15.64,2.17.78v.79h-11.02v-.79c1.27-.11,2.08-.25,2.45-.4.37-.16.55-.55.55-1.17,0-.21-.07-.57-.21-1.1-.14-.52-.34-1.08-.59-1.66l-1.73-4.09h-11.42c-1.13,2.78-1.8,4.48-2.02,5.1-.22.61-.33,1.1-.33,1.46,0,.72.3,1.21.89,1.49.37.17,1.06.29,2.07.37v.79h-8.59ZM187.25,409.53l-4.97-11.72-4.99,11.72h9.96Z"/>
      <path class="cls-2" d="M199.43,419.77c1.3-.11,2.16-.34,2.58-.68.42-.34.63-1.06.63-2.17v-9.37c0-1.37-.13-2.35-.39-2.94-.26-.59-.74-.88-1.43-.88-.14,0-.33.02-.56.05-.23.03-.48.08-.73.14v-.69c.8-.28,1.62-.56,2.47-.85.84-.29,1.43-.5,1.75-.62.7-.26,1.43-.56,2.17-.89.1,0,.16.03.18.1.02.07.03.22.03.44v3.41c.91-1.23,1.78-2.2,2.62-2.89s1.72-1.04,2.62-1.04c.72,0,1.31.21,1.76.63s.68.95.68,1.59c0,.57-.17,1.05-.52,1.43-.35.39-.78.58-1.3.58s-1.08-.24-1.62-.73c-.54-.48-.97-.73-1.28-.73-.49,0-1.1.39-1.82,1.17-.72.78-1.08,1.59-1.08,2.42v9.37c0,1.19.28,2.02.85,2.48.56.46,1.5.68,2.81.66v.69h-10.43v-.69Z"/>
      <path class="cls-2" d="M224.7,401.3v1.5h-4.32l-.04,11.97c0,1.05.09,1.85.28,2.39.34.96,1,1.43,1.99,1.43.51,0,.95-.12,1.32-.35.37-.24.8-.61,1.28-1.12l.55.46-.47.62c-.73.97-1.51,1.66-2.33,2.06-.82.4-1.61.6-2.37.6-1.66,0-2.79-.73-3.39-2.18-.32-.79-.49-1.88-.49-3.28v-12.6h-2.31c-.07-.04-.12-.08-.16-.12s-.05-.1-.05-.17c0-.14.03-.25.1-.32.06-.08.26-.25.6-.53.97-.79,1.67-1.43,2.1-1.92s1.44-1.79,3.04-3.9c.18,0,.29.01.33.04s.05.13.05.31v5.11h4.27Z"/>
      <path class="cls-2" d="M226.56,419.88c1.51-.14,2.46-.39,2.86-.76.4-.37.59-1.36.59-2.98v-9.91c0-.9-.06-1.52-.19-1.87-.21-.57-.66-.85-1.33-.85-.16,0-.31.01-.45.04s-.57.14-1.28.33v-.64l.91-.29c2.47-.79,4.19-1.39,5.16-1.79.4-.17.65-.25.76-.25.03.1.04.2.04.31v14.92c0,1.58.19,2.57.58,2.97.39.4,1.27.66,2.63.77v.58h-10.28v-.58ZM229.93,392.09c.42-.43.95-.64,1.57-.64s1.13.21,1.56.63c.43.42.65.93.65,1.54s-.22,1.1-.65,1.52c-.43.42-.95.63-1.56.63s-1.14-.21-1.57-.63c-.42-.42-.63-.93-.63-1.52s.21-1.1.63-1.53Z"/>
      <path class="cls-2" d="M239.15,419.88c1.1-.04,1.87-.25,2.31-.62s.66-1.3.66-2.76v-13.78h-3.03v-1.25h3.03c.03-3.01.8-5.41,2.32-7.2,1.52-1.79,3.82-2.69,6.91-2.69,1.32,0,2.53.3,3.62.91s1.65,1.33,1.65,2.16c0,.43-.15.8-.45,1.11s-.69.47-1.15.47c-.65,0-1.39-.59-2.22-1.78-.83-1.18-1.73-1.78-2.69-1.78s-1.75.17-2.31.51c-.56.34-1.09.97-1.57,1.9-.27.69-.44,1.42-.52,2.17-.08.76-.12,2.16-.12,4.21h5.97c.5,0,1.07-.01,1.71-.03.63-.02,1.17-.06,1.6-.11.12-.01.45-.08.97-.19.52-.11.85-.17.97-.17.07,0,.14.03.21.08s.11.16.11.31c0,.12-.03.53-.08,1.2l-.02.87c-.01.3-.02.6-.03.89,0,.29-.01.59-.01.89v11.1c0,1.45.21,2.38.62,2.76.42.39,1.2.65,2.34.79v.58h-9.52v-.62c1.35-.12,2.19-.37,2.52-.75s.49-1.3.49-2.76v-11.22c0-.98-.14-1.6-.41-1.86s-.88-.41-1.82-.45c-.66-.02-1.15-.04-1.47-.06-.95-.01-2.33-.02-4.13-.02v14.01c0,1.26.3,2.12.91,2.58.38.29,1.11.48,2.2.58v.58h-9.52v-.58Z"/>
      <path class="cls-2" d="M277.19,402.2c1.28.89,1.91,1.87,1.91,2.93,0,.46-.16.88-.49,1.27s-.83.59-1.5.59c-.49,0-.93-.17-1.3-.5-.37-.33-.64-.82-.81-1.45l-.25-1c-.18-.73-.5-1.25-.95-1.56-.47-.29-1.08-.44-1.84-.44-1.61,0-2.97.69-4.07,2.07-1.11,1.38-1.66,3.22-1.66,5.5,0,2.1.61,3.97,1.83,5.64,1.22,1.66,2.87,2.5,4.94,2.5,1.47,0,2.77-.47,3.92-1.42.65-.54,1.38-1.4,2.2-2.58l.59.35c-.8,1.66-1.65,2.98-2.54,3.95-1.71,1.86-3.68,2.79-5.93,2.79s-4.15-.85-5.84-2.56c-1.69-1.7-2.54-4.02-2.54-6.94s.92-5.33,2.77-7.4c1.85-2.06,4.18-3.1,7-3.1,1.76,0,3.28.45,4.56,1.34Z"/>
      <path class="cls-2" d="M281.94,419.88c1.51-.14,2.46-.39,2.86-.76.4-.37.59-1.36.59-2.98v-9.91c0-.9-.06-1.52-.19-1.87-.21-.57-.66-.85-1.33-.85-.16,0-.31.01-.45.04s-.57.14-1.28.33v-.64l.91-.29c2.47-.79,4.19-1.39,5.16-1.79.4-.17.65-.25.76-.25.03.1.04.2.04.31v14.92c0,1.58.19,2.57.58,2.97.39.4,1.27.66,2.63.77v.58h-10.28v-.58ZM285.3,392.09c.42-.43.95-.64,1.57-.64s1.13.21,1.56.63c.43.42.65.93.65,1.54s-.22,1.1-.65,1.52c-.43.42-.95.63-1.56.63s-1.14-.21-1.57-.63c-.42-.42-.63-.93-.63-1.52s.21-1.1.63-1.53Z"/>
      <path class="cls-2" d="M297.79,411.29c1.3-.83,3.89-1.96,7.77-3.39v-1.77c0-1.41-.14-2.4-.42-2.95-.48-.93-1.47-1.39-2.98-1.39-.72,0-1.4.18-2.05.54-.65.37-.97.89-.97,1.54,0,.17.03.45.11.84.07.4.11.65.11.76,0,.78-.26,1.32-.78,1.62-.3.18-.65.27-1.06.27-.63,0-1.12-.2-1.46-.61-.34-.41-.51-.86-.51-1.36,0-.97.61-1.98,1.83-3.04,1.22-1.06,3.01-1.59,5.36-1.59,2.74,0,4.59.87,5.57,2.62.52.96.78,2.35.78,4.18v8.33c0,.8.06,1.36.17,1.66.18.54.56.81,1.14.81.32,0,.59-.05.8-.15s.58-.33,1.1-.71v1.08c-.45.54-.94.98-1.46,1.33-.79.53-1.59.79-2.41.79-.96,0-1.65-.3-2.08-.91-.43-.61-.67-1.34-.71-2.18-1.07.91-1.99,1.59-2.75,2.04-1.28.75-2.5,1.12-3.66,1.12s-2.26-.42-3.15-1.26-1.33-1.9-1.33-3.19c0-2.01,1.02-3.69,3.07-5.03ZM305.55,408.95c-1.62.53-2.96,1.11-4.02,1.75-2.03,1.23-3.05,2.63-3.05,4.2,0,1.26.42,2.19,1.27,2.79.55.39,1.16.58,1.84.58.93,0,1.82-.26,2.68-.77.85-.51,1.28-1.16,1.28-1.95v-6.59Z"/>
      <path class="cls-2" d="M313.25,419.88c1.31-.13,2.2-.39,2.67-.78.47-.4.7-1.17.7-2.32v-20.31c0-.91-.08-1.54-.23-1.89-.28-.58-.85-.87-1.71-.87-.2,0-.41.02-.65.06-.23.04-.53.1-.88.19v-.69c1.9-.5,4.2-1.16,6.88-1.99.1,0,.16.04.18.12.02.08.03.26.03.54v24.92c0,1.21.21,1.98.63,2.34s1.3.58,2.62.68v.58h-10.24v-.58Z"/>
      <path class="cls-2" d="M335.94,419.67c1.76-.12,2.91-.38,3.43-.78.52-.39.78-1.41.78-3.05v-18.93c0-1.57-.26-2.57-.78-3.02-.52-.45-1.66-.72-3.43-.8v-.79h12.82v.79c-1.76.08-2.91.35-3.43.8-.52.45-.78,1.46-.78,3.02v18.93c0,1.64.26,2.66.78,3.05.52.39,1.66.65,3.43.78v.79h-12.82v-.79Z"/>
      <path class="cls-2" d="M350.45,419.88c1-.13,1.7-.37,2.11-.74s.6-1.19.6-2.46v-10.56c0-.88-.09-1.5-.25-1.86-.27-.52-.82-.78-1.65-.78-.13,0-.26,0-.39.02-.13.01-.3.03-.5.06v-.73c.58-.17,1.95-.6,4.1-1.29l1.99-.64c.1,0,.16.03.18.1.02.07.03.17.03.29v3.05c1.3-1.19,2.31-2.01,3.04-2.45,1.1-.68,2.24-1.02,3.42-1.02.96,0,1.83.27,2.62.81,1.52,1.05,2.28,2.93,2.28,5.63v9.71c0,1,.2,1.72.61,2.16.41.44,1.09.67,2.04.69v.58h-9.04v-.58c1.03-.14,1.75-.42,2.16-.84.41-.42.61-1.34.61-2.75v-8.87c0-1.19-.22-2.18-.67-2.96s-1.28-1.17-2.48-1.17c-.83,0-1.67.28-2.52.83-.48.32-1.09.85-1.85,1.58v11.64c0,1,.22,1.67.68,2.01.45.34,1.16.52,2.14.55v.58h-9.25v-.58Z"/>
      <path class="cls-2" d="M382.36,401.3v1.5h-4.32l-.04,11.97c0,1.05.09,1.85.28,2.39.34.96,1,1.43,1.99,1.43.51,0,.95-.12,1.32-.35.37-.24.8-.61,1.28-1.12l.55.46-.47.62c-.73.97-1.51,1.66-2.33,2.06-.82.4-1.61.6-2.37.6-1.66,0-2.79-.73-3.39-2.18-.32-.79-.49-1.88-.49-3.28v-12.6h-2.31c-.07-.04-.12-.08-.16-.12s-.05-.1-.05-.17c0-.14.03-.25.1-.32.06-.08.26-.25.6-.53.97-.79,1.67-1.43,2.1-1.92s1.44-1.79,3.04-3.9c.18,0,.29.01.33.04s.05.13.05.31v5.11h4.27Z"/>
      <path class="cls-2" d="M398.53,402.99c1.49,1.35,2.24,3.27,2.24,5.75h-13.44c.14,3.21.88,5.54,2.22,7.01,1.34,1.47,2.93,2.2,4.76,2.2,1.48,0,2.73-.38,3.74-1.14,1.02-.76,1.95-1.84,2.81-3.24l.74.25c-.58,1.76-1.66,3.39-3.25,4.89-1.59,1.5-3.53,2.25-5.83,2.25-2.65,0-4.7-.98-6.15-2.95-1.45-1.97-2.17-4.23-2.17-6.8,0-2.79.84-5.19,2.52-7.21,1.68-2.02,3.86-3.04,6.56-3.04,1.99,0,3.73.68,5.23,2.03ZM388.39,404.58c-.45.75-.78,1.69-.97,2.83h8.93c-.16-1.39-.42-2.42-.8-3.1-.69-1.22-1.85-1.83-3.47-1.83s-2.84.7-3.68,2.1Z"/>
      <path class="cls-2" d="M403.5,419.88c1.31-.13,2.2-.39,2.67-.78.47-.4.7-1.17.7-2.32v-20.31c0-.91-.08-1.54-.23-1.89-.28-.58-.85-.87-1.71-.87-.2,0-.41.02-.65.06-.23.04-.53.1-.88.19v-.69c1.9-.5,4.2-1.16,6.88-1.99.1,0,.16.04.18.12.02.08.03.26.03.54v24.92c0,1.21.21,1.98.63,2.34s1.3.58,2.62.68v.58h-10.24v-.58Z"/>
      <path class="cls-2" d="M415.54,419.88c1.31-.13,2.2-.39,2.67-.78.47-.4.7-1.17.7-2.32v-20.31c0-.91-.08-1.54-.23-1.89-.28-.58-.85-.87-1.71-.87-.2,0-.41.02-.65.06-.23.04-.53.1-.88.19v-.69c1.9-.5,4.2-1.16,6.88-1.99.1,0,.16.04.18.12.02.08.03.26.03.54v24.92c0,1.21.21,1.98.63,2.34s1.3.58,2.62.68v.58h-10.24v-.58Z"/>
      <path class="cls-2" d="M427.54,419.88c1.51-.14,2.46-.39,2.86-.76.4-.37.59-1.36.59-2.98v-9.91c0-.9-.06-1.52-.19-1.87-.21-.57-.66-.85-1.33-.85-.16,0-.31.01-.45.04s-.57.14-1.28.33v-.64l.91-.29c2.47-.79,4.19-1.39,5.16-1.79.4-.17.65-.25.76-.25.03.1.04.2.04.31v14.92c0,1.58.19,2.57.58,2.97.39.4,1.27.66,2.63.77v.58h-10.28v-.58ZM430.9,392.09c.42-.43.95-.64,1.57-.64s1.13.21,1.56.63c.43.42.65.93.65,1.54s-.22,1.1-.65,1.52c-.43.42-.95.63-1.56.63s-1.14-.21-1.57-.63c-.42-.42-.63-.93-.63-1.52s.21-1.1.63-1.53Z"/>
      <path class="cls-2" d="M442.74,411.25c-.71-1.07-1.07-2.27-1.07-3.6,0-1.62.66-3.16,1.97-4.61,1.31-1.45,3.17-2.18,5.57-2.18,1.03,0,2.17.24,3.41.72,1.24.48,2.43.72,3.58.72.3,0,.74-.01,1.34-.03.6-.02,1.03-.03,1.3-.03h.25v1.68h-3.66c.25.58.45,1.09.59,1.52.24.8.36,1.57.36,2.29,0,1.58-.67,3.03-2,4.35-1.33,1.32-3.13,1.98-5.39,1.98-.35,0-.99-.06-1.9-.19-.41,0-.95.34-1.63,1.02-.68.68-1.02,1.23-1.02,1.66s.49.77,1.48.98c.65.14,1.37.21,2.16.21,3.63,0,6.1.2,7.4.6,2.13.65,3.2,2.05,3.2,4.2s-1.25,3.93-3.74,5.24-5,1.95-7.54,1.95c-2.31,0-4.15-.46-5.5-1.38-1.35-.92-2.03-1.89-2.03-2.9,0-.5.18-.99.54-1.47.36-.48,1.06-1.19,2.12-2.13l1.39-1.23.25-.25c-.64-.25-1.13-.49-1.45-.73-.56-.43-.84-.92-.84-1.48,0-.51.24-1.08.73-1.69.49-.62,1.53-1.62,3.12-3-1.28-.42-2.28-1.16-2.99-2.22ZM444.99,426.72c1.33.44,2.86.67,4.58.67,2.34,0,4.25-.4,5.71-1.2,1.47-.8,2.2-1.78,2.2-2.94,0-.93-.59-1.54-1.78-1.85-.74-.18-2.13-.28-4.18-.31-.52-.01-1.08-.03-1.65-.05-.58-.02-1.11-.05-1.59-.07-.31-.01-.81-.07-1.51-.17s-1.21-.18-1.55-.25c-.17,0-.58.44-1.24,1.31-.67.89-1,1.7-1,2.45,0,1.16.67,1.97,2,2.41ZM451.7,412.44c.85-.66,1.27-1.82,1.27-3.47,0-1.32-.34-2.8-1.03-4.45-.68-1.65-1.82-2.47-3.42-2.47-1.38,0-2.33.64-2.86,1.93-.27.68-.4,1.52-.4,2.51,0,1.69.42,3.21,1.25,4.55.83,1.34,1.91,2.02,3.24,2.02.78,0,1.42-.21,1.95-.62Z"/>
      <path class="cls-2" d="M475.55,402.99c1.49,1.35,2.24,3.27,2.24,5.75h-13.44c.14,3.21.88,5.54,2.22,7.01,1.34,1.47,2.93,2.2,4.76,2.2,1.48,0,2.73-.38,3.74-1.14,1.02-.76,1.95-1.84,2.81-3.24l.74.25c-.58,1.76-1.66,3.39-3.25,4.89-1.59,1.5-3.53,2.25-5.83,2.25-2.65,0-4.7-.98-6.15-2.95-1.45-1.97-2.17-4.23-2.17-6.8,0-2.79.84-5.19,2.52-7.21,1.68-2.02,3.86-3.04,6.56-3.04,1.99,0,3.73.68,5.23,2.03ZM465.42,404.58c-.45.75-.78,1.69-.97,2.83h8.93c-.16-1.39-.42-2.42-.8-3.1-.69-1.22-1.85-1.83-3.47-1.83s-2.84.7-3.68,2.1Z"/>
      <path class="cls-2" d="M480.42,419.88c1-.13,1.7-.37,2.11-.74s.6-1.19.6-2.46v-10.56c0-.88-.09-1.5-.25-1.86-.27-.52-.82-.78-1.65-.78-.13,0-.26,0-.39.02-.13.01-.3.03-.5.06v-.73c.58-.17,1.95-.6,4.1-1.29l1.99-.64c.1,0,.16.03.18.1.02.07.03.17.03.29v3.05c1.3-1.19,2.31-2.01,3.04-2.45,1.1-.68,2.24-1.02,3.42-1.02.96,0,1.83.27,2.62.81,1.52,1.05,2.28,2.93,2.28,5.63v9.71c0,1,.2,1.72.61,2.16.41.44,1.09.67,2.04.69v.58h-9.04v-.58c1.03-.14,1.75-.42,2.16-.84.41-.42.61-1.34.61-2.75v-8.87c0-1.19-.22-2.18-.67-2.96s-1.28-1.17-2.48-1.17c-.83,0-1.67.28-2.52.83-.48.32-1.09.85-1.85,1.58v11.64c0,1,.22,1.67.68,2.01.45.34,1.16.52,2.14.55v.58h-9.25v-.58Z"/>
      <path class="cls-2" d="M516.63,402.2c1.28.89,1.91,1.87,1.91,2.93,0,.46-.16.88-.49,1.27s-.83.59-1.5.59c-.49,0-.93-.17-1.3-.5-.37-.33-.64-.82-.81-1.45l-.25-1c-.18-.73-.5-1.25-.95-1.56-.47-.29-1.08-.44-1.84-.44-1.61,0-2.97.69-4.07,2.07-1.11,1.38-1.66,3.22-1.66,5.5,0,2.1.61,3.97,1.83,5.64,1.22,1.66,2.87,2.5,4.94,2.5,1.47,0,2.77-.47,3.92-1.42.65-.54,1.38-1.4,2.2-2.58l.59.35c-.8,1.66-1.65,2.98-2.54,3.95-1.71,1.86-3.68,2.79-5.93,2.79s-4.15-.85-5.84-2.56c-1.69-1.7-2.54-4.02-2.54-6.94s.92-5.33,2.77-7.4c1.85-2.06,4.18-3.1,7-3.1,1.76,0,3.28.45,4.56,1.34Z"/>
      <path class="cls-2" d="M535.69,402.99c1.49,1.35,2.24,3.27,2.24,5.75h-13.44c.14,3.21.88,5.54,2.22,7.01,1.34,1.47,2.93,2.2,4.76,2.2,1.48,0,2.73-.38,3.74-1.14,1.02-.76,1.95-1.84,2.81-3.24l.74.25c-.58,1.76-1.66,3.39-3.25,4.89-1.59,1.5-3.53,2.25-5.83,2.25-2.65,0-4.7-.98-6.15-2.95-1.45-1.97-2.17-4.23-2.17-6.8,0-2.79.84-5.19,2.52-7.21,1.68-2.02,3.86-3.04,6.56-3.04,1.99,0,3.73.68,5.23,2.03ZM525.55,404.58c-.45.75-.78,1.69-.97,2.83h8.93c-.16-1.39-.42-2.42-.8-3.1-.69-1.22-1.85-1.83-3.47-1.83s-2.84.7-3.68,2.1Z"/>
      <path class="cls-2" d="M551.09,419.67c1.59-.17,2.63-.44,3.1-.84s.71-1.39.71-2.99v-18.93c0-1.51-.23-2.5-.7-2.96-.47-.46-1.5-.75-3.11-.86v-.79h12.23v.79c-1.59.08-2.66.34-3.21.77-.54.43-.81,1.35-.81,2.76v20.45c0,.47.08.84.24,1.11.16.27.52.44,1.07.51.32.04.67.07,1.03.08s1.03.02,2.02.02c3.86,0,6.46-.31,7.82-.94,1.36-.62,2.67-2.22,3.94-4.78h1.1l-2.12,7.38h-23.32v-.79Z"/>
      <path class="cls-2" d="M581.73,411.29c1.3-.83,3.89-1.96,7.77-3.39v-1.77c0-1.41-.14-2.4-.42-2.95-.48-.93-1.47-1.39-2.98-1.39-.72,0-1.4.18-2.05.54-.65.37-.97.89-.97,1.54,0,.17.03.45.11.84.07.4.11.65.11.76,0,.78-.26,1.32-.78,1.62-.3.18-.65.27-1.06.27-.63,0-1.12-.2-1.46-.61-.34-.41-.51-.86-.51-1.36,0-.97.61-1.98,1.83-3.04,1.22-1.06,3.01-1.59,5.36-1.59,2.74,0,4.59.87,5.57,2.62.52.96.78,2.35.78,4.18v8.33c0,.8.06,1.36.17,1.66.18.54.56.81,1.14.81.32,0,.59-.05.8-.15s.58-.33,1.1-.71v1.08c-.45.54-.94.98-1.46,1.33-.79.53-1.59.79-2.41.79-.96,0-1.65-.3-2.08-.91-.43-.61-.67-1.34-.71-2.18-1.07.91-1.99,1.59-2.75,2.04-1.28.75-2.5,1.12-3.66,1.12s-2.26-.42-3.15-1.26-1.33-1.9-1.33-3.19c0-2.01,1.02-3.69,3.07-5.03ZM589.5,408.95c-1.62.53-2.96,1.11-4.02,1.75-2.03,1.23-3.05,2.63-3.05,4.2,0,1.26.42,2.19,1.27,2.79.55.39,1.16.58,1.84.58.93,0,1.82-.26,2.68-.77.85-.51,1.28-1.16,1.28-1.95v-6.59Z"/>
      <path class="cls-2" d="M596.46,394.02v-.71c1.61-.36,3.06-.76,4.35-1.21,1.29-.44,1.98-.67,2.08-.67.03.08.04.17.04.25v12.66c.37-.66.91-1.29,1.65-1.89,1.3-1.04,2.79-1.56,4.48-1.56,2.07,0,3.84.86,5.3,2.58s2.2,3.95,2.2,6.69c0,2.94-.95,5.45-2.86,7.54-1.9,2.09-4.41,3.14-7.51,3.14-1.57,0-3.1-.3-4.61-.91s-2.26-1.22-2.26-1.83v-21.97c0-.8-.11-1.37-.34-1.71-.23-.34-.75-.51-1.57-.51l-.95.1ZM604.52,418.95c.97.31,1.82.47,2.55.47,1.97,0,3.42-.73,4.37-2.18.95-1.45,1.42-3.21,1.42-5.27s-.44-3.97-1.33-5.72-2.32-2.63-4.3-2.63c-1,0-1.97.3-2.93.9-.95.6-1.43,1.37-1.43,2.29v10.59c.13.72.67,1.24,1.64,1.55Z"/>
      <path class="cls-2" d="M621.76,403.82c1.78-1.9,4.08-2.86,6.89-2.86s5.11.9,6.94,2.7c1.83,1.8,2.75,4.2,2.75,7.19,0,2.76-.89,5.15-2.67,7.19-1.78,2.04-4.08,3.05-6.9,3.05s-5-.98-6.88-2.93c-1.88-1.95-2.81-4.41-2.81-7.36,0-2.76.89-5.09,2.68-6.99ZM625.14,403.29c-1.41,1.26-2.12,3.44-2.12,6.53,0,2.47.57,4.77,1.71,6.9,1.14,2.13,2.72,3.2,4.74,3.2,1.58,0,2.8-.71,3.66-2.14.85-1.43,1.28-3.3,1.28-5.61s-.54-4.66-1.63-6.78c-1.09-2.12-2.66-3.18-4.73-3.18-1.12,0-2.08.36-2.9,1.08Z"/>
      <path class="cls-2" d="M639.84,419.77c1.3-.11,2.16-.34,2.58-.68.42-.34.63-1.06.63-2.17v-9.37c0-1.37-.13-2.35-.39-2.94-.26-.59-.74-.88-1.43-.88-.14,0-.33.02-.56.05-.23.03-.48.08-.73.14v-.69c.8-.28,1.62-.56,2.47-.85.84-.29,1.43-.5,1.75-.62.7-.26,1.43-.56,2.17-.89.1,0,.16.03.18.1.02.07.03.22.03.44v3.41c.91-1.23,1.78-2.2,2.62-2.89s1.72-1.04,2.62-1.04c.72,0,1.31.21,1.76.63s.68.95.68,1.59c0,.57-.17,1.05-.52,1.43-.35.39-.78.58-1.3.58s-1.08-.24-1.62-.73c-.54-.48-.97-.73-1.28-.73-.49,0-1.1.39-1.82,1.17-.72.78-1.08,1.59-1.08,2.42v9.37c0,1.19.28,2.02.85,2.48.56.46,1.5.68,2.81.66v.69h-10.43v-.69Z"/>
      <path class="cls-2" d="M658.73,411.29c1.3-.83,3.89-1.96,7.77-3.39v-1.77c0-1.41-.14-2.4-.42-2.95-.48-.93-1.47-1.39-2.98-1.39-.72,0-1.4.18-2.05.54-.65.37-.97.89-.97,1.54,0,.17.03.45.11.84.07.4.11.65.11.76,0,.78-.26,1.32-.78,1.62-.3.18-.65.27-1.06.27-.63,0-1.12-.2-1.46-.61-.34-.41-.51-.86-.51-1.36,0-.97.61-1.98,1.83-3.04,1.22-1.06,3.01-1.59,5.36-1.59,2.74,0,4.59.87,5.57,2.62.52.96.78,2.35.78,4.18v8.33c0,.8.06,1.36.17,1.66.18.54.56.81,1.14.81.32,0,.59-.05.8-.15s.58-.33,1.1-.71v1.08c-.45.54-.94.98-1.46,1.33-.79.53-1.59.79-2.41.79-.96,0-1.65-.3-2.08-.91-.43-.61-.67-1.34-.71-2.18-1.07.91-1.99,1.59-2.75,2.04-1.28.75-2.5,1.12-3.66,1.12s-2.26-.42-3.15-1.26-1.33-1.9-1.33-3.19c0-2.01,1.02-3.69,3.07-5.03ZM666.5,408.95c-1.62.53-2.96,1.11-4.02,1.75-2.03,1.23-3.05,2.63-3.05,4.2,0,1.26.42,2.19,1.27,2.79.55.39,1.16.58,1.84.58.93,0,1.82-.26,2.68-.77.85-.51,1.28-1.16,1.28-1.95v-6.59Z"/>
      <path class="cls-2" d="M684.34,401.3v1.5h-4.32l-.04,11.97c0,1.05.09,1.85.28,2.39.34.96,1,1.43,1.99,1.43.51,0,.95-.12,1.32-.35.37-.24.8-.61,1.28-1.12l.55.46-.47.62c-.73.97-1.51,1.66-2.33,2.06-.82.4-1.61.6-2.37.6-1.66,0-2.79-.73-3.39-2.18-.32-.79-.49-1.88-.49-3.28v-12.6h-2.31c-.07-.04-.12-.08-.16-.12s-.05-.1-.05-.17c0-.14.03-.25.1-.32.06-.08.26-.25.6-.53.97-.79,1.67-1.43,2.1-1.92s1.44-1.79,3.04-3.9c.18,0,.29.01.33.04s.05.13.05.31v5.11h4.27Z"/>
      <path class="cls-2" d="M689.13,403.82c1.78-1.9,4.08-2.86,6.89-2.86s5.11.9,6.94,2.7c1.83,1.8,2.75,4.2,2.75,7.19,0,2.76-.89,5.15-2.67,7.19-1.78,2.04-4.08,3.05-6.9,3.05s-5-.98-6.88-2.93c-1.88-1.95-2.81-4.41-2.81-7.36,0-2.76.89-5.09,2.68-6.99ZM692.51,403.29c-1.41,1.26-2.12,3.44-2.12,6.53,0,2.47.57,4.77,1.71,6.9,1.14,2.13,2.72,3.2,4.74,3.2,1.58,0,2.8-.71,3.66-2.14.85-1.43,1.28-3.3,1.28-5.61s-.54-4.66-1.63-6.78c-1.09-2.12-2.66-3.18-4.73-3.18-1.12,0-2.08.36-2.9,1.08Z"/>
      <path class="cls-2" d="M707.21,419.77c1.3-.11,2.16-.34,2.58-.68.42-.34.63-1.06.63-2.17v-9.37c0-1.37-.13-2.35-.39-2.94-.26-.59-.74-.88-1.43-.88-.14,0-.33.02-.56.05-.23.03-.48.08-.73.14v-.69c.8-.28,1.62-.56,2.47-.85.84-.29,1.43-.5,1.75-.62.7-.26,1.43-.56,2.17-.89.1,0,.16.03.18.1.02.07.03.22.03.44v3.41c.91-1.23,1.78-2.2,2.62-2.89s1.72-1.04,2.62-1.04c.72,0,1.31.21,1.76.63s.68.95.68,1.59c0,.57-.17,1.05-.52,1.43-.35.39-.78.58-1.3.58s-1.08-.24-1.62-.73c-.54-.48-.97-.73-1.28-.73-.49,0-1.1.39-1.82,1.17-.72.78-1.08,1.59-1.08,2.42v9.37c0,1.19.28,2.02.85,2.48.56.46,1.5.68,2.81.66v.69h-10.43v-.69Z"/>
      <path class="cls-2" d="M722.05,401.36h8.93v.58c-.71.01-1.23.08-1.57.19-.65.18-.97.55-.97,1.08,0,.2.04.4.11.61.07.21.2.51.38.92l4.9,10.4,4.03-10.49c.04-.11.11-.37.2-.77.09-.4.14-.67.14-.81,0-.37-.13-.64-.38-.81-.25-.17-.58-.27-.97-.3l-.66-.04v-.58h5.82v.58c-.58.07-1.01.27-1.3.6-.29.33-.54.79-.75,1.37l-6.67,17.33c-1.16,2.99-2.26,5.16-3.32,6.51-1.06,1.34-2.4,2.02-4.02,2.02-.79,0-1.53-.19-2.22-.58-.69-.39-1.04-1-1.04-1.85,0-.55.21-1.01.62-1.36.41-.35.93-.53,1.56-.53.36,0,.9.13,1.62.39s1.23.4,1.54.4c.78,0,1.6-.94,2.47-2.82.86-1.88,1.3-3.12,1.3-3.73,0-.12-.02-.27-.06-.45-.04-.18-.09-.34-.14-.47l-6.67-14.16c-.48-1.02-.9-1.7-1.26-2.03-.36-.33-.89-.54-1.6-.63v-.58Z"/>
    </g>
  </g>
</svg>